<?xml version="1.0" encoding="utf-8"?>
<!-- Generator: Adobe Illustrator 15.0.0, SVG Export Plug-In . SVG Version: 6.00 Build 0)  -->
<!DOCTYPE svg PUBLIC "-//W3C//DTD SVG 1.1//EN" "http://www.w3.org/Graphics/SVG/1.1/DTD/svg11.dtd">
<svg version="1.1" id="Calque_1" xmlns="http://www.w3.org/2000/svg" xmlns:xlink="http://www.w3.org/1999/xlink" x="0px" y="0px"
	 width="72px" height="72px" viewBox="0 0 72 72" enable-background="new 0 0 72 72" xml:space="preserve">
<g>
	<path fill="#FFFFFF" d="M35.501,65.31c0,0,28.909-15.246,28.909-50.641c0,0-0.535,0.039-1.499,0.039c-4.096,0-15.938-0.713-27.41-8.208
		c-11.472,7.495-23.318,8.208-27.413,8.208c-0.965,0-1.499-0.039-1.499-0.039C6.589,50.063,35.501,65.31,35.501,65.31z
		 M35.501,11.052c9.714,5.67,19.313,7.1,24.807,7.408c-1.599,25.296-18.881,38.525-24.792,42.336
		c-5.839-3.823-23.202-17.23-24.82-42.336C16.186,18.151,25.786,16.722,35.501,11.052z"/>
	<path fill="#FFFFFF" stroke="#FFFFFF" stroke-width="1.4712" stroke-miterlimit="10" d="M27.465,45.678l8.036-4.125l8.034,4.125l-1.442-8.916
		l6.407-6.367l-8.924-1.385l-4.075-8.06l-4.076,8.06L22.5,30.395l6.407,6.367L27.465,45.678z M26.12,31.57l5.569-0.864l0.871-0.136
		l0.398-0.787l2.544-5.029l2.542,5.029l0.397,0.787l0.871,0.136l5.568,0.864l-3.997,3.973l-0.626,0.621l0.141,0.871l0.9,5.563
		l-5.014-2.574l-0.783-0.402l-0.785,0.402l-5.014,2.574l0.899-5.564l0.14-0.87l-0.625-0.621L26.12,31.57z"/>
</g>
</svg>
